<?xml version="1.0" encoding="utf-8"?>
<!-- Generator: Adobe Illustrator 25.0.0, SVG Export Plug-In . SVG Version: 6.00 Build 0)  -->
<svg version="1.1" id="Layer_1" xmlns="http://www.w3.org/2000/svg" xmlns:xlink="http://www.w3.org/1999/xlink" x="0px" y="0px"
	 viewBox="0 0 4000 4000" style="enable-background:new 0 0 4000 4000;" xml:space="preserve">
<style type="text/css">
	.st0{fill:url(#SVGID_1_);}
	.st1{fill:url(#SVGID_2_);}
	.st2{fill:url(#SVGID_3_);}
	.st3{fill:#D4D93F;}
	.st4{fill:#0D0D0D;}
</style>
<g>
	<g>
		<g>
			<linearGradient id="SVGID_1_" gradientUnits="userSpaceOnUse" x1="2779.0583" y1="843.8391" x2="2779.0583" y2="2327.6853">
				<stop  offset="0" style="stop-color:#D4D93D"/>
				<stop  offset="0.9997" style="stop-color:#467302"/>
			</linearGradient>
			<path class="st0" d="M2486.62,1555.27c-28.35,28.35-54.72,57.92-79.15,88.53c-0.4,122.87-20.87,243.25-59.8,357.04
				c59.78-69.98,124.01-135.91,191.68-197.5c88.1-79.34,182.39-151.22,282.53-212.94c50.07-30.84,101.6-59.07,154.38-84.4
				c26.4-12.63,53.09-24.6,80.21-35.44c27.1-10.85,54.49-21,82.47-29c-26.89,11.06-52.83,24.12-78.35,37.81
				c-25.53,13.68-50.47,28.39-74.98,43.68c-49,30.65-96.22,63.86-141.54,99.29c-90.65,70.92-173.73,150.48-249.48,235.77
				c-75.3,85.74-143.73,176.91-203.51,273.2c-46.45,74.34-88.4,151.2-125.97,229.99c261.02-6.32,520.14-108.99,719.33-308.19
				c220.92-220.92,323.16-515.53,306.87-804.7C3002.14,1232.11,2707.54,1334.35,2486.62,1555.27z"/>
			<linearGradient id="SVGID_2_" gradientUnits="userSpaceOnUse" x1="1220.9417" y1="843.8391" x2="1220.9417" y2="2327.6853">
				<stop  offset="0" style="stop-color:#D4D93D"/>
				<stop  offset="0.9997" style="stop-color:#467302"/>
			</linearGradient>
			<path class="st1" d="M1405.4,1858.1c-75.74-85.29-158.83-164.85-249.48-235.77c-45.33-35.43-92.54-68.65-141.54-99.29
				c-24.52-15.29-49.45-30.01-74.98-43.68c-25.52-13.69-51.46-26.75-78.35-37.81c27.98,8.01,55.38,18.15,82.47,29
				c27.12,10.84,53.81,22.81,80.21,35.44c52.78,25.32,104.32,53.56,154.38,84.4c100.14,61.72,194.43,133.6,282.53,212.94
				c67.68,61.6,131.9,127.52,191.68,197.5c-38.93-113.79-59.39-234.17-59.8-357.04c-24.44-30.61-50.81-60.18-79.15-88.53
				c-220.92-220.92-515.53-323.16-804.7-306.87c-16.3,289.18,85.95,583.78,306.87,804.7c199.2,199.2,458.31,301.87,719.34,308.19
				c-37.57-78.79-79.51-155.65-125.97-229.99C1549.14,2035.01,1480.7,1943.84,1405.4,1858.1z"/>
			<linearGradient id="SVGID_3_" gradientUnits="userSpaceOnUse" x1="1999.9999" y1="843.8391" x2="1999.9999" y2="2327.6853">
				<stop  offset="0" style="stop-color:#D4D93D"/>
				<stop  offset="0.9997" style="stop-color:#467302"/>
			</linearGradient>
			<path class="st2" d="M2000,848.73c-217.48,194.27-354.43,476.81-354.43,791.37c0,278.55,107.45,531.93,283.04,721.21
				L2000,1165.49l71.38,1195.81c175.6-189.28,283.04-442.66,283.04-721.21C2354.43,1325.53,2217.47,1043,2000,848.73z"/>
		</g>
		<path class="st3" d="M2966.88,1498.6c-53.68,23.36-106.22,49.68-157.39,78.65c-102.35,57.99-199.23,126.34-290.19,202.38
			c-50.53,42.69-99.26,87.78-145.98,135.04c-7.38,29.09-15.93,57.84-25.62,86.18c59.78-69.98,124.01-135.91,191.68-197.5
			c88.1-79.34,182.39-151.22,282.53-212.94c50.07-30.84,101.6-59.07,154.38-84.4c26.4-12.63,53.09-24.6,80.21-35.44
			c9.66-3.87,19.38-7.59,29.13-11.22c15.18-6.86,36.76-11.75,52.42-17.53c-28.26,6.97-50.24,9.32-89.71,24.34
			C3021.05,1476.54,2993.74,1486.95,2966.88,1498.6z"/>
		<path class="st3" d="M2572.81,1477.95c181.74-119.89,394.11-173.99,603.5-162.19c15.39,273.08-81.17,551.28-289.78,759.91
			c-163.28,163.28-369.2,257.84-581.92,283.87c247.53-15.24,490.7-117.29,679.84-306.43c220.92-220.92,323.16-515.53,306.87-804.7
			C3038.31,1234.15,2781.14,1310.63,2572.81,1477.95z"/>
		<path class="st3" d="M1480.7,1779.62c-90.96-76.04-187.85-144.39-290.19-202.38c-51.17-28.97-103.72-55.29-157.39-78.65
			c-26.85-11.65-54.17-22.06-81.47-32.45c-39.47-15.02-61.45-17.38-89.71-24.34c15.67,5.78,37.24,10.68,52.42,17.53
			c9.75,3.62,19.47,7.35,29.13,11.22c27.12,10.84,53.81,22.81,80.21,35.44c52.78,25.32,104.32,53.56,154.38,84.4
			c100.14,61.72,194.43,133.6,282.53,212.94c67.68,61.6,131.9,127.52,191.68,197.5c-9.69-28.34-18.24-57.09-25.62-86.18
			C1579.97,1867.4,1531.23,1822.31,1480.7,1779.62z"/>
		<path class="st3" d="M823.69,1315.76c209.39-11.8,421.76,42.3,603.5,162.19c-208.33-167.32-465.5-243.81-718.51-229.55
			c-16.3,289.18,85.95,583.78,306.87,804.7c189.15,189.15,432.32,291.19,679.84,306.43c-212.72-26.03-418.63-120.59-581.92-283.87
			C904.86,1867.05,808.3,1588.84,823.69,1315.76z"/>
		<path class="st3" d="M2000,848.73c-188.91,168.76-317,404.13-347.4,669.22c47.95-201.12,156.76-378.62,305.96-511.91
			c204.44,182.63,333.19,448.23,333.19,743.94c0,195.75-56.46,378.27-153.92,532.28c135.85-178.26,216.6-400.75,216.6-642.17
			C2354.43,1325.53,2217.47,1043,2000,848.73z"/>
	</g>
	<g>
		<g>
			<path class="st4" d="M953.04,2824.83c0,103.44-79.93,188.08-188.75,188.08c-103.44,0-185.39-82.62-185.39-187.41
				c0-108.15,87.32-188.08,184.72-188.08C867.74,2637.42,953.04,2719.37,953.04,2824.83z M668.91,2824.83
				c0,60.45,38.29,103.44,96.05,103.44c55.08,0,98.07-40.3,98.07-102.77c0-60.45-39.63-103.44-98.07-103.44
				C709.21,2722.05,668.91,2765.71,668.91,2824.83z"/>
			<path class="st4" d="M1085.1,2691.83c16.79-36.94,45.68-54.41,75.23-54.41c18.81,0,30.23,5.37,38.96,9.4l-27.54,76.58
				c-6.72-3.36-16.79-7.39-26.2-7.39c-25.53,0-45.68,29.55-47.69,81.95c-0.67,19.48-0.67,41.65-0.67,61.12v144.42h-89.34v-356.68
				h77.25V2691.83z"/>
			<path class="st4" d="M1574.09,2952.45c0,69.19-13.43,115.53-54.41,150.46c-32.24,26.87-75.23,39.63-129.64,39.63
				c-98.07,0-160.54-38.29-184.72-112.85h98.74c18.14,21.5,45,30.9,82.62,30.9c32.91,0,59.78-8.73,75.9-23.51
				c21.49-20.15,22.17-44.33,22.17-77.92c-29.55,28.88-61.8,44.33-108.14,44.33c-96.05,0-171.29-76.57-171.29-183.38
				c0-110.16,75.9-182.7,166.58-182.7c44.33,0,79.26,16.79,112.85,48.36v-38.96h89.34V2952.45z M1295.33,2820.79
				c0,59.11,42.32,100.76,98.07,100.76c55.08,0,96.05-39.63,96.05-100.08c0-57.77-38.29-102.1-97.4-102.1
				S1295.33,2765.71,1295.33,2820.79z"/>
			<path class="st4" d="M1920.28,2965.88c-31.57,30.9-65.16,47.02-110.16,47.02c-90.68,0-169.94-77.92-169.94-187.41
				c0-111.5,75.23-188.08,167.93-188.08c42.99,0,79.93,16.12,112.17,48.36v-38.96h89.34v356.68h-89.34V2965.88z M1730.19,2824.83
				c0,61.12,40.3,106.13,96.05,106.13c55.08,0,98.07-41.65,98.07-106.8c0-62.47-41.65-104.79-98.07-104.79
				C1767.13,2719.37,1730.19,2766.39,1730.19,2824.83z"/>
			<path class="st4" d="M2182.97,2683.09c34.26-28.88,65.83-45.68,105.46-45.68c66.5,0,122.25,45.68,122.25,122.25v243.83h-89.34
				v-168.6c0-70.53-6.04-115.53-60.45-115.53c-24.85,0-46.35,12.09-60.45,34.26c-18.14,28.88-17.46,61.12-17.46,98.07v151.81h-89.34
				v-356.68h89.34V2683.09z"/>
			<path class="st4" d="M2588.67,2558.83c0,31.57-25.53,57.09-57.1,57.09c-32.91,0-57.09-28.88-57.09-61.8
				c0-30.9,26.2-54.41,57.09-54.41C2563.82,2499.72,2588.67,2526.59,2588.67,2558.83z M2487.25,2646.82h89.34v356.68h-89.34V2646.82
				z"/>
			<path class="st4" d="M2995.12,2938.34c-38.29,49.71-92.02,74.56-161.88,74.56c-121.58,0-200.17-82.62-200.17-186.74
				c0-106.8,83.29-188.75,201.51-188.75c69.86,0,128.97,28.88,164.57,81.28l-74.56,40.97c-25.52-26.87-50.38-40.3-89.34-40.3
				c-68.51,0-112.17,46.35-112.17,108.14c0,60.45,42.32,103.44,108.14,103.44c39.63,0,71.2-13.43,93.37-40.97L2995.12,2938.34z"/>
			<path class="st4" d="M3314.98,2965.88c-31.57,30.9-65.16,47.02-110.16,47.02c-90.68,0-169.94-77.92-169.94-187.41
				c0-111.5,75.23-188.08,167.93-188.08c42.99,0,79.93,16.12,112.17,48.36v-38.96h89.34v356.68h-89.34V2965.88z M3124.89,2824.83
				c0,61.12,40.3,106.13,96.05,106.13c55.08,0,98.07-41.65,98.07-106.8c0-62.47-41.65-104.79-98.07-104.79
				C3161.83,2719.37,3124.89,2766.39,3124.89,2824.83z"/>
		</g>
	</g>
</g>
</svg>
